<?xml version="1.0" encoding="UTF-8"?>
<svg xmlns="http://www.w3.org/2000/svg" xmlns:xlink="http://www.w3.org/1999/xlink" width="500pt" height="500pt" viewBox="0 0 500 500" version="1.1">
<g id="surface1">
<path style=" stroke:none;fill-rule:nonzero;fill:#FFFFFF;fill-opacity:1;" d="M 259.796875 29.453125 C 256.695313 29.492188 253.519531 30.03125 250.496094 31.003906 C 244.605469 32.902344 238.949219 36.464844 234.066406 41.542969 C 233.949219 41.660156 233.871094 41.738281 233.753906 41.851563 L 115.949219 158.730469 L 49.601563 158.730469 C 33.289063 158.730469 19.839844 172.175781 19.839844 188.492188 L 19.839844 307.539063 C 19.839844 323.855469 33.289063 337.300781 49.601563 337.300781 L 117.1875 337.300781 L 233.136719 453.558594 C 244.335938 464.757813 258.632813 469.332031 270.335938 463.789063 C 282.039063 458.25 287.699219 444.996094 287.699219 429.6875 L 287.699219 62.625 C 287.699219 47.820313 280.414063 35.226563 268.789063 31.003906 C 265.878906 29.957031 262.898438 29.414063 259.796875 29.453125 Z M 259.488281 49.292969 C 260.417969 49.292969 261.269531 49.371094 261.964844 49.601563 C 264.71875 50.609375 267.855469 53.59375 267.855469 62.625 L 267.855469 429.6875 C 267.855469 440.152344 264.097656 444.644531 261.65625 445.808594 C 259.214844 446.972656 254.71875 446.933594 247.085938 439.296875 L 122.148438 314.359375 C 122.304688 314.515625 119.046875 308.546875 119.046875 304.441406 L 119.046875 190.351563 C 119.046875 189.035156 119.511719 186.359375 120.289063 184.152344 C 121.0625 181.941406 122.613281 180.277344 122.148438 180.742188 L 248.015625 55.804688 C 248.132813 55.6875 248.210938 55.609375 248.324219 55.492188 C 252.820313 50.726563 256.65625 49.332031 259.488281 49.292969 Z M 307.539063 79.363281 L 307.539063 99.207031 C 389.421875 99.207031 456.347656 166.132813 456.347656 248.015625 C 456.347656 329.898438 389.421875 396.824219 307.539063 396.824219 L 307.539063 416.667969 C 400.234375 416.667969 476.191406 340.710938 476.191406 248.015625 C 476.191406 155.320313 400.234375 79.363281 307.539063 79.363281 Z M 307.539063 138.890625 L 307.539063 158.730469 C 356.679688 158.730469 396.824219 198.878906 396.824219 248.015625 C 396.824219 297.152344 356.679688 337.300781 307.539063 337.300781 L 307.539063 357.144531 C 367.527344 357.144531 416.667969 308.003906 416.667969 248.015625 C 416.667969 188.027344 367.527344 138.890625 307.539063 138.890625 Z M 49.601563 178.570313 L 101.375 178.570313 C 100.097656 182.292969 99.207031 186.089844 99.207031 190.351563 L 99.207031 304.441406 C 99.207031 309.207031 99.941406 313.546875 101.375 317.460938 L 49.601563 317.460938 C 44.101563 317.460938 39.683594 313.042969 39.683594 307.539063 L 39.683594 188.492188 C 39.683594 182.988281 44.101563 178.570313 49.601563 178.570313 Z M 307.539063 198.414063 L 307.539063 218.253906 C 323.972656 218.253906 337.300781 231.585938 337.300781 248.015625 C 337.300781 264.445313 323.972656 277.777344 307.539063 277.777344 L 307.539063 297.617188 C 334.78125 297.617188 357.144531 275.257813 357.144531 248.015625 C 357.144531 220.773438 334.78125 198.414063 307.539063 198.414063 Z "/>
</g>
</svg>
