<?xml version="1.0" encoding="UTF-8"?>
<svg xmlns="http://www.w3.org/2000/svg" xmlns:xlink="http://www.w3.org/1999/xlink" width="500pt" height="500pt" viewBox="0 0 500 500" version="1.1">
<g id="surface1">
<path style=" stroke:none;fill-rule:nonzero;fill:#FFFFFF;fill-opacity:1;" d="M 9.921875 0 C 7.441406 0 5.078125 1.125 3.101563 3.101563 C -0.851563 7.054688 -0.851563 12.789063 3.101563 16.742188 L 479.289063 492.929688 C 481.265625 494.90625 484.132813 496.03125 486.109375 496.03125 C 488.085938 496.03125 490.957031 494.90625 492.929688 492.929688 C 496.882813 488.980469 496.882813 483.242188 492.929688 479.289063 L 417.90625 404.265625 C 465.84375 366.792969 494.171875 309.59375 494.171875 247.085938 C 494.171875 170.703125 451.273438 102.304688 383.804688 67.585938 C 378.84375 65.609375 373.070313 66.34375 371.09375 71.304688 C 369.117188 78.242188 371.171875 84.210938 375.125 86.183594 C 436.625 116.953125 474.332031 179.578125 474.332031 248.015625 C 474.332031 304.554688 448.132813 356.910156 404.265625 390.625 L 372.644531 359.003906 C 405.351563 332.300781 425.65625 291.804688 425.65625 248.015625 C 425.65625 195.429688 396.941406 146.949219 350.324219 122.148438 C 345.363281 119.164063 339.355469 120.90625 336.371094 125.867188 C 333.386719 130.828125 335.207031 136.914063 339.160156 138.890625 C 378.84375 160.707031 404.886719 202.367188 404.886719 248.015625 C 404.886719 285.992188 387.679688 321.722656 358.382813 344.742188 L 320.25 306.609375 C 341.214844 294.789063 355.28125 272.894531 355.28125 248.015625 C 355.28125 217.246094 334.203125 190.546875 304.441406 182.601563 C 299.480469 181.59375 293.667969 184.460938 292.660156 189.421875 C 291.652344 194.382813 294.519531 200.503906 299.480469 201.511719 C 320.328125 206.472656 335.441406 225.269531 335.441406 247.085938 C 335.441406 266.847656 323.117188 284.792969 305.371094 291.730469 L 265.996094 252.355469 L 265.996094 62.625 C 265.996094 39.796875 251 29.761719 238.09375 29.761719 C 229.183594 29.761719 220.308594 33.597656 212.363281 41.542969 L 133.929688 120.289063 L 16.742188 3.101563 C 14.765625 1.125 12.402344 0 9.921875 0 Z M 238.09375 49.601563 C 246.039063 49.601563 246.15625 59.640625 246.15625 62.625 L 246.15625 232.515625 L 146.949219 133.308594 L 225.074219 55.492188 C 230.035156 51.539063 234.140625 49.601563 238.09375 49.601563 Z M 107.265625 145.710938 L 95.175781 158.730469 L 27.902344 158.730469 C 11.042969 158.730469 -1.859375 171.632813 -1.859375 188.492188 L -1.859375 307.539063 C -1.859375 324.398438 11.042969 337.300781 27.902344 337.300781 L 95.175781 337.300781 L 211.433594 453.25 C 222.363281 464.175781 231.160156 466.269531 238.09375 466.269531 C 254.953125 466.269531 265.996094 451.503906 265.996094 429.6875 L 265.996094 304.441406 L 246.15625 284.597656 L 246.15625 429.6875 C 246.15625 439.609375 243.054688 446.429688 238.09375 446.429688 C 235.109375 446.429688 230.265625 443.5625 226.316406 439.609375 L 100.136719 314.359375 C 99.128906 313.351563 97.347656 309.632813 97.347656 305.679688 L 97.347656 190.351563 C 97.347656 186.398438 99.128906 182.40625 100.136719 180.429688 L 120.90625 159.660156 Z M 27.902344 178.570313 L 79.363281 178.570313 C 78.359375 182.523438 77.503906 187.367188 77.503906 190.351563 L 77.503906 304.441406 C 77.503906 308.390625 78.359375 313.507813 79.363281 317.460938 L 27.902344 317.460938 C 21.933594 317.460938 17.980469 313.507813 17.980469 307.539063 L 17.980469 188.492188 C 17.980469 182.523438 21.933594 178.570313 27.902344 178.570313 Z "/>
</g>
</svg>
