<?xml version="1.0" encoding="UTF-8"?>
<svg xmlns="http://www.w3.org/2000/svg" xmlns:xlink="http://www.w3.org/1999/xlink" width="500pt" height="500pt" viewBox="0 0 500 500" version="1.1">
<g id="surface1">
<path style=" stroke:none;fill-rule:nonzero;fill:#FFFFFF;fill-opacity:1;" d="M 310.328125 52.394531 L 260.726563 101.996094 L 253.90625 109.128906 L 260.726563 116.257813 L 310.328125 165.859375 L 324.589844 151.601563 L 292.039063 119.046875 L 386.90625 119.046875 C 397.988281 119.046875 406.746094 127.804688 406.746094 138.890625 L 406.746094 357.144531 C 406.746094 368.226563 397.988281 376.984375 386.90625 376.984375 L 267.855469 376.984375 L 267.855469 396.824219 L 386.90625 396.824219 C 408.722656 396.824219 426.585938 378.960938 426.585938 357.144531 L 426.585938 138.890625 C 426.585938 117.070313 408.722656 99.207031 386.90625 99.207031 L 292.039063 99.207031 L 324.589844 66.652344 Z M 109.128906 99.207031 C 87.308594 99.207031 69.445313 117.070313 69.445313 138.890625 L 69.445313 357.144531 C 69.445313 378.960938 87.308594 396.824219 109.128906 396.824219 L 203.992188 396.824219 L 171.441406 429.378906 L 185.703125 443.636719 L 235.304688 394.035156 L 242.125 386.90625 L 235.304688 379.773438 L 185.703125 330.171875 L 171.441406 344.433594 L 203.992188 376.984375 L 109.128906 376.984375 C 98.042969 376.984375 89.285156 368.226563 89.285156 357.144531 L 89.285156 138.890625 C 89.285156 127.804688 98.042969 119.046875 109.128906 119.046875 L 228.175781 119.046875 L 228.175781 99.207031 Z "/>
</g>
</svg>
