<?xml version="1.0" encoding="UTF-8"?>
<svg xmlns="http://www.w3.org/2000/svg" xmlns:xlink="http://www.w3.org/1999/xlink" width="500pt" height="500pt" viewBox="0 0 500 500" version="1.1">
<g id="surface1">
<path style=" stroke:none;fill-rule:nonzero;fill:#FFFFFF;fill-opacity:1;" d="M 239.644531 29.761719 C 236.621094 29.761719 233.640625 30.382813 230.65625 31.3125 C 224.648438 33.210938 218.914063 36.777344 213.914063 41.851563 L 97.347656 158.421875 L 29.761719 158.421875 C 13.214844 158.421875 -0.308594 171.945313 -0.308594 188.492188 L -0.308594 307.539063 C -0.308594 324.085938 13.214844 337.613281 29.761719 337.613281 L 97.347656 337.613281 L 213.605469 453.25 C 224.6875 464.371094 238.910156 469.253906 250.496094 463.789063 C 262.160156 458.285156 267.855469 445.035156 267.855469 429.6875 L 267.855469 62.625 C 267.855469 47.742188 260.261719 35.382813 248.636719 31.3125 C 245.730469 30.304688 242.667969 29.761719 239.644531 29.761719 Z M 239.957031 49.601563 C 240.964844 49.601563 241.738281 49.679688 242.433594 49.914063 C 245.265625 50.882813 248.015625 53.402344 248.015625 62.625 L 248.015625 429.6875 C 248.015625 440.265625 244.527344 444.996094 242.125 446.117188 C 239.722656 447.242188 234.878906 447.359375 227.246094 439.609375 L 102.304688 314.671875 C 102.113281 314.554688 101.878906 314.4375 101.6875 314.359375 C 102.421875 315.019531 99.207031 308.742188 99.207031 305.058594 L 99.207031 190.972656 C 99.207031 187.289063 102.539063 180.933594 101.6875 181.671875 C 101.917969 181.476563 102.113281 181.285156 102.304688 181.050781 L 227.863281 55.804688 C 232.515625 51.113281 236.894531 49.640625 239.957031 49.601563 Z M 379.773438 67.585938 C 375.433594 68.320313 372.101563 71.847656 371.597656 76.226563 C 371.132813 80.605469 373.535156 84.789063 377.605469 86.496094 C 436.625 116.257813 476.808594 177.292969 476.808594 248.015625 C 476.808594 318.738281 436.625 379.773438 377.605469 409.535156 C 373.960938 410.777344 371.402344 414.03125 370.976563 417.828125 C 370.550781 421.664063 372.371094 425.386719 375.667969 427.402344 C 378.921875 429.378906 383.066406 429.300781 386.285156 427.207031 C 451.777344 394.152344 496.652344 326.335938 496.652344 248.015625 C 496.652344 169.695313 451.777344 101.878906 386.285156 68.824219 C 384.578125 67.855469 382.640625 67.429688 380.703125 67.585938 C 380.394531 67.585938 380.085938 67.585938 379.773438 67.585938 Z M 344.433594 120.289063 C 340.015625 120.832031 336.488281 124.277344 335.867188 128.695313 C 335.207031 133.074219 337.574219 137.378906 341.640625 139.199219 C 380.355469 160.085938 406.746094 200.855469 406.746094 248.015625 C 406.746094 295.023438 380.472656 335.90625 341.953125 356.832031 C 337.148438 359.46875 335.402344 365.511719 338.078125 370.320313 C 340.710938 375.125 346.757813 376.867188 351.5625 374.195313 C 396.28125 349.894531 426.585938 302.425781 426.585938 248.015625 C 426.585938 193.453125 396.207031 145.785156 351.253906 121.527344 C 349.46875 120.519531 347.414063 120.09375 345.363281 120.289063 C 345.050781 120.289063 344.742188 120.289063 344.433594 120.289063 Z M 29.761719 178.882813 L 81.226563 178.882813 C 79.945313 182.679688 79.363281 186.824219 79.363281 190.972656 L 79.363281 305.058594 C 79.363281 309.207031 79.984375 313.3125 81.226563 317.148438 L 29.761719 317.148438 C 24.414063 317.148438 20.152344 312.886719 20.152344 307.539063 L 20.152344 188.492188 C 20.152344 183.144531 24.414063 178.882813 29.761719 178.882813 Z M 302.890625 182.601563 C 298.085938 183.183594 294.441406 187.136719 294.207031 191.980469 C 293.976563 196.785156 297.230469 201.085938 301.960938 202.132813 C 322.265625 207.441406 337.300781 225.964844 337.300781 248.015625 C 337.300781 270.066406 322.265625 288.589844 301.960938 293.898438 C 296.648438 295.253906 293.472656 300.679688 294.828125 305.988281 C 296.183594 311.296875 301.609375 314.476563 306.917969 313.121094 C 335.789063 305.5625 357.144531 279.132813 357.144531 248.015625 C 357.144531 216.898438 335.789063 190.46875 306.917969 182.910156 C 305.601563 182.523438 304.246094 182.445313 302.890625 182.601563 Z "/>
</g>
</svg>
