<?xml version="1.0" encoding="UTF-8"?>
<svg xmlns="http://www.w3.org/2000/svg" xmlns:xlink="http://www.w3.org/1999/xlink" width="500pt" height="500pt" viewBox="0 0 500 500" version="1.1">
<g id="surface1">
<path style=" stroke:none;fill-rule:nonzero;fill:#FFFFFF;fill-opacity:1;" d="M 239.644531 29.761719 C 236.621094 29.761719 233.640625 30.382813 230.65625 31.3125 C 224.648438 33.210938 218.914063 36.777344 213.914063 41.851563 L 97.347656 158.421875 L 29.761719 158.421875 C 13.214844 158.421875 -0.308594 171.945313 -0.308594 188.492188 L -0.308594 307.539063 C -0.308594 324.085938 13.214844 337.613281 29.761719 337.613281 L 97.347656 337.613281 L 213.605469 453.25 C 224.6875 464.371094 238.910156 469.253906 250.496094 463.789063 C 262.160156 458.285156 267.855469 445.035156 267.855469 429.6875 L 267.855469 62.625 C 267.855469 47.742188 260.261719 35.382813 248.636719 31.3125 C 245.730469 30.304688 242.667969 29.761719 239.644531 29.761719 Z M 239.957031 49.601563 C 240.964844 49.601563 241.738281 49.679688 242.433594 49.914063 C 245.265625 50.882813 248.015625 53.402344 248.015625 62.625 L 248.015625 429.6875 C 248.015625 440.265625 244.527344 444.996094 242.125 446.117188 C 239.722656 447.242188 234.878906 447.359375 227.246094 439.609375 L 102.304688 314.671875 C 102.113281 314.554688 101.878906 314.4375 101.6875 314.359375 C 102.421875 315.019531 99.207031 308.742188 99.207031 305.058594 L 99.207031 190.972656 C 99.207031 187.289063 102.539063 180.933594 101.6875 181.671875 C 101.917969 181.476563 102.113281 181.285156 102.304688 181.050781 L 227.863281 55.804688 C 232.515625 51.113281 236.894531 49.640625 239.957031 49.601563 Z M 29.761719 178.882813 L 81.226563 178.882813 C 79.945313 182.679688 79.363281 186.824219 79.363281 190.972656 L 79.363281 305.058594 C 79.363281 309.207031 79.984375 313.3125 81.226563 317.148438 L 29.761719 317.148438 C 24.414063 317.148438 20.152344 312.886719 20.152344 307.539063 L 20.152344 188.492188 C 20.152344 183.144531 24.414063 178.882813 29.761719 178.882813 Z M 302.890625 182.601563 C 298.085938 183.183594 294.441406 187.136719 294.207031 191.980469 C 293.976563 196.785156 297.230469 201.085938 301.960938 202.132813 C 322.265625 207.441406 337.300781 225.964844 337.300781 248.015625 C 337.300781 270.066406 322.265625 288.589844 301.960938 293.898438 C 296.648438 295.253906 293.472656 300.679688 294.828125 305.988281 C 296.183594 311.296875 301.609375 314.476563 306.917969 313.121094 C 335.789063 305.5625 357.144531 279.132813 357.144531 248.015625 C 357.144531 216.898438 335.789063 190.46875 306.917969 182.910156 C 305.601563 182.523438 304.246094 182.445313 302.890625 182.601563 Z "/>
</g>
</svg>
