<?xml version="1.0" encoding="UTF-8"?>
<svg xmlns="http://www.w3.org/2000/svg" xmlns:xlink="http://www.w3.org/1999/xlink" width="500pt" height="500pt" viewBox="0 0 500 500" version="1.1">
<g id="surface1">
<path style=" stroke:none;fill-rule:nonzero;fill:#FFFFFF;fill-opacity:1;" d="M 310.445313 52.507813 L 253.828125 109.128906 L 310.445313 165.746094 L 324.472656 151.714844 L 291.804688 119.046875 L 396.824219 119.046875 C 407.910156 119.046875 416.667969 127.804688 416.667969 138.890625 L 416.667969 357.144531 C 416.667969 368.226563 407.910156 376.984375 396.824219 376.984375 L 267.855469 376.984375 L 267.855469 396.824219 L 396.824219 396.824219 C 418.644531 396.824219 436.507813 378.960938 436.507813 357.144531 L 436.507813 138.890625 C 436.507813 117.070313 418.644531 99.207031 396.824219 99.207031 L 291.804688 99.207031 L 324.472656 66.539063 Z M 99.207031 99.207031 C 77.390625 99.207031 59.523438 117.070313 59.523438 138.890625 L 59.523438 357.144531 C 59.523438 378.960938 77.390625 396.824219 99.207031 396.824219 L 204.226563 396.824219 L 171.558594 429.492188 L 185.585938 443.523438 L 242.203125 386.90625 L 185.585938 330.289063 L 171.558594 344.316406 L 204.226563 376.984375 L 99.207031 376.984375 C 88.125 376.984375 79.363281 368.226563 79.363281 357.144531 L 79.363281 138.890625 C 79.363281 127.804688 88.125 119.046875 99.207031 119.046875 L 228.175781 119.046875 L 228.175781 99.207031 Z M 251.734375 178.570313 C 251 182.484375 249.410156 185.816406 247.046875 188.492188 C 244.644531 191.203125 241.777344 193.414063 238.40625 195.117188 C 234.996094 196.824219 231.234375 198.0625 227.089844 198.800781 C 222.902344 199.535156 218.601563 199.925781 214.222656 199.925781 L 214.535156 218.253906 L 245.535156 218.253906 L 245.535156 307.539063 L 267.855469 307.539063 L 267.855469 178.570313 Z "/>
</g>
</svg>
