<?xml version="1.0" encoding="UTF-8"?>
<svg xmlns="http://www.w3.org/2000/svg" xmlns:xlink="http://www.w3.org/1999/xlink" width="500pt" height="500pt" viewBox="0 0 500 500" version="1.1">
<g id="surface1">
<path style=" stroke:none;fill-rule:nonzero;fill:#FFFFFF;fill-opacity:1;" d="M 364.273438 52.394531 L 350.011719 66.652344 L 382.566406 99.207031 L 323.039063 99.207031 C 303.820313 99.207031 286.1875 110.597656 278.085938 128.039063 L 241.195313 206.785156 L 252.355469 230.34375 L 296.070313 136.410156 C 300.914063 125.945313 311.492188 119.046875 323.039063 119.046875 L 382.566406 119.046875 L 350.011719 151.601563 L 364.273438 165.859375 L 413.875 116.257813 L 420.695313 109.128906 L 413.875 101.996094 Z M 79.363281 99.207031 L 79.363281 119.046875 L 143.230469 119.046875 C 154.855469 119.046875 165.316406 125.867188 170.199219 136.410156 L 278.085938 367.992188 C 286.226563 385.472656 303.742188 396.824219 323.039063 396.824219 L 382.566406 396.824219 L 350.011719 429.378906 L 364.273438 443.636719 L 413.875 394.035156 L 420.695313 386.90625 L 413.875 379.773438 L 364.273438 330.171875 L 350.011719 344.433594 L 382.566406 376.984375 L 323.039063 376.984375 C 311.414063 376.984375 300.953125 370.164063 296.070313 359.621094 L 188.183594 128.039063 C 180.042969 110.5625 162.527344 99.207031 143.230469 99.207031 Z M 213.914063 265.6875 L 170.199219 359.621094 C 165.355469 370.085938 154.777344 376.984375 143.230469 376.984375 L 79.363281 376.984375 L 79.363281 396.824219 L 143.230469 396.824219 C 162.449219 396.824219 180.082031 385.433594 188.183594 367.992188 L 225.074219 289.25 Z "/>
</g>
</svg>
