<?xml version="1.0" encoding="UTF-8"?>
<svg xmlns="http://www.w3.org/2000/svg" xmlns:xlink="http://www.w3.org/1999/xlink" width="500pt" height="500pt" viewBox="0 0 500 500" version="1.1">
<g id="surface1">
<path style=" stroke:none;fill-rule:nonzero;fill:#FFFFFF;fill-opacity:1;" d="M 239.644531 29.761719 C 236.621094 29.761719 233.640625 30.382813 230.65625 31.3125 C 224.648438 33.210938 218.914063 36.777344 213.914063 41.851563 L 97.347656 158.421875 L 29.761719 158.421875 C 13.214844 158.421875 -0.308594 171.945313 -0.308594 188.492188 L -0.308594 307.539063 C -0.308594 324.085938 13.214844 337.613281 29.761719 337.613281 L 97.347656 337.613281 L 213.605469 453.25 C 224.6875 464.371094 238.910156 469.253906 250.496094 463.789063 C 262.160156 458.285156 267.855469 445.035156 267.855469 429.6875 L 267.855469 62.625 C 267.855469 47.742188 260.261719 35.382813 248.636719 31.3125 C 245.730469 30.304688 242.667969 29.761719 239.644531 29.761719 Z M 239.957031 49.601563 C 240.964844 49.601563 241.738281 49.679688 242.433594 49.914063 C 245.265625 50.882813 248.015625 53.402344 248.015625 62.625 L 248.015625 429.6875 C 248.015625 440.265625 244.527344 444.996094 242.125 446.117188 C 239.722656 447.242188 234.878906 447.359375 227.246094 439.609375 L 102.304688 314.671875 C 102.113281 314.554688 101.878906 314.4375 101.6875 314.359375 C 102.421875 315.019531 99.207031 308.742188 99.207031 305.058594 L 99.207031 190.972656 C 99.207031 187.289063 102.539063 180.933594 101.6875 181.671875 C 101.917969 181.476563 102.113281 181.285156 102.304688 181.050781 L 227.863281 55.804688 C 232.515625 51.113281 236.894531 49.640625 239.957031 49.601563 Z M 29.761719 178.882813 L 81.226563 178.882813 C 79.945313 182.679688 79.363281 186.824219 79.363281 190.972656 L 79.363281 305.058594 C 79.363281 309.207031 79.984375 313.3125 81.226563 317.148438 L 29.761719 317.148438 C 24.414063 317.148438 20.152344 312.886719 20.152344 307.539063 L 20.152344 188.492188 C 20.152344 183.144531 24.414063 178.882813 29.761719 178.882813 Z M 316.53125 188.183594 C 316.105469 188.257813 315.675781 188.375 315.289063 188.492188 C 311.570313 189.152344 308.585938 191.863281 307.539063 195.46875 C 306.492188 199.109375 307.578125 202.984375 310.328125 205.542969 L 352.800781 248.015625 L 310.328125 290.488281 C 306.378906 294.441406 306.378906 300.796875 310.328125 304.75 C 314.28125 308.703125 320.636719 308.703125 324.589844 304.75 L 367.0625 262.277344 L 409.535156 304.75 C 413.488281 308.703125 419.84375 308.703125 423.796875 304.75 C 427.75 300.796875 427.75 294.441406 423.796875 290.488281 L 381.324219 248.015625 L 423.796875 205.542969 C 427.011719 202.558594 427.867188 197.832031 425.929688 193.917969 C 424.03125 189.964844 419.726563 187.792969 415.425781 188.492188 C 413.21875 188.722656 411.125 189.730469 409.535156 191.28125 L 367.0625 233.753906 L 324.589844 191.28125 C 322.535156 189.074219 319.554688 187.949219 316.53125 188.183594 Z "/>
</g>
</svg>
